<?xml version="1.0" encoding="UTF-8"?>
<svg id="Layer_2" data-name="Layer 2" xmlns="http://www.w3.org/2000/svg" viewBox="0 0 1230.78 417.7">
  <defs>
    <style>
      .cls-1 {
        fill: #fff;
      }

      .cls-2 {
        fill: #ffc629;
      }
    </style>
  </defs>
  <g id="Layer_2-2" data-name="Layer 2">
    <path class="cls-2" d="m947.55,216.99c-.02,43.91-.05,106.96,0,118.83h71.98v-7.79c-33.29-23.11-57.45-60.42-71.97-111.04Z"/>
  </g>
  <g id="Layer_3" data-name="Layer 3">
    <path class="cls-2" d="m1230.78,214.43c0-33.84-12.5-65.6-35.19-89.45-23.53-24.72-55.64-38.33-90.42-38.33-30.39,0-61.91,13.07-70.44,24.95.09,30.98,6.74,61.7,13.39,79.1,15.35-21.05,34.16-27.53,44.27-29.51,4.35-.86,8.65-1.29,12.78-1.29,29.85,0,52.36,23.44,52.36,54.53s-23.86,54.87-53.19,54.87c-3.77,0-7.64-.41-11.51-1.22-7.5-1.57-14.61-4.81-21.13-9.63-20.18-13.95-35.37-39.63-45.09-76.28-9.25-34.89-10.62-69.21-10.73-84.22h-68.33v3.99c4.66,146.13,66.2,240.6,156.79,240.6,34.03,0,65.97-13.58,89.93-38.22,23.55-24.22,36.52-56.15,36.52-89.9Z"/>
  </g>
  <g id="Layer_4" data-name="Layer 4">
    <circle class="cls-2" cx="980.24" cy="37.27" r="37.27"/>
  </g>
  <g id="Layer_5" data-name="Layer 5">
    <path class="cls-1" d="m506.03,133.02v-42.26h-62.46v122.46c0,21.51-1.22,35.7-3.62,42.16-3.23,8.59-8.21,15.17-14.82,19.56-6.63,4.41-14.82,6.64-24.36,6.64s-17.65-2.27-24.12-6.74c-6.48-4.47-11.25-10.83-14.18-18.93-2.98-8.21-4.49-23.23-4.49-44.62v-120.54h-63.12v105.47c0,36.92,2.37,62.79,7.04,76.86,6.61,20.46,18.18,36.64,34.41,48.09,16.22,11.45,37.73,17.26,63.92,17.26,24.13,0,44.33-4.97,60.04-14.77,15.72-9.81,27.78-24.07,35.85-42.37.86-1.97,1.66-4.19,2.41-6.62-11.24-16.3-18.31-39.94-18.31-66.26,0-31.77,10.31-59.64,25.81-75.4Z"/>
  </g>
  <g id="Layer_6" data-name="Layer 6">
    <g>
      <path class="cls-1" d="m284.24,254.9c-1.47,2.01-3.04,3.94-4.77,5.77-11.94,12.62-27.19,19.02-45.34,19.02s-32.57-6.51-44.58-19.34c-6.57-7.01-11.27-15.22-14.28-24.42-3.42,22.96-21.26,41.8-45.1,48.9,3.8,5.68,8.08,11.11,12.9,16.23,22.52,23.94,49.6,36.08,80.48,36.08,13.76,0,26.73-2.49,38.53-7.41,10.93-4.55,21.96-11.87,32.82-21.77v109.75h62.46v-73.32c-41.65-9.74-72.67-46.04-73.11-89.49Z"/>
      <path class="cls-1" d="m171.47,209.16c.34-19.06,6.28-34.96,17.76-47.23,11.8-12.61,26.84-19.01,44.69-19.01s33.63,6.29,45.57,18.7c11.2,11.64,17.16,26.89,17.88,45.29,12.95-21.45,34.47-37.38,59.99-43.34v-72.44h-62.46v24.03c-9.99-9.58-20.9-16.96-32.48-21.95-12.6-5.42-26.26-8.18-40.61-8.18-31.17,0-58.03,11.96-79.84,35.54-13.02,14.09-22.14,30.74-27.42,49.69,24.34,4.67,47.48,19.44,56.92,38.91Z"/>
    </g>
  </g>
  <g id="Layer_7" data-name="Layer 7">
    <path class="cls-1" d="m115.82,184.47l-22.8-10.89c-9.64-4.53-15.73-8.11-18.09-10.65-2.26-2.42-3.36-4.97-3.36-7.81,0-3.74,1.73-6.8,5.29-9.36,3.66-2.62,8.86-3.94,15.47-3.94,4.23,0,8.69.99,13.31,2.75,2.25-9.33,8.36-19.35,16.3-28.98,5.88-7.14,12.49-13.73,19.32-18.61-1.07-.56-2.11-1.15-3.21-1.67-14.36-6.82-29.9-10.28-46.18-10.28-23.85,0-43.73,6.84-59.08,20.32-15.39,13.52-23.19,30.04-23.19,49.13,0,29.52,20.54,54.36,61.05,73.85l20.97,10.02c17.42,8.39,26.26,16.95,26.26,25.43,0,4.49-2.27,8.37-6.93,11.88-4.7,3.54-11.05,5.34-18.85,5.34-7.29,0-15.82-2.47-25.35-7.33-9.59-4.9-18.07-11.41-25.19-19.36l-1.16-1.29L0,295.04l.8,1.01c21.79,27.27,51.35,41.09,87.87,41.09,27.48,0,49.73-7.24,66.15-21.51,16.45-14.31,24.79-32.42,24.79-53.81,0-16.07-4.63-30.29-13.76-42.26-9.08-11.9-25.92-23.71-50.03-35.08Z"/>
  </g>
  <g id="Layer_8" data-name="Layer 8">
    <path class="cls-1" d="m675.9,249.68c-.04-.27-.06-.53-.09-.8-2.35,4.43-5.12,7.81-9.19,12.11-11.94,12.62-27.19,19.02-45.34,19.02s-32.56-6.51-44.58-19.34c-12.04-12.85-18.14-29.5-18.14-49.48s6-36.3,17.82-48.94c11.8-12.61,26.83-19.01,44.69-19.01s33.62,6.29,45.56,18.7c10.73,11.14,16.67,25.58,17.79,42.94,12.03-21.32,34.51-37.63,60.08-44.55v-68.88h-62.46v24.03c-9.99-9.58-20.9-16.96-32.48-21.95-12.61-5.42-26.27-8.18-40.61-8.18-31.17,0-58.04,11.96-79.84,35.54-21.77,23.56-32.8,54.16-32.8,90.95s11.41,65.64,33.9,89.55c22.52,23.94,49.6,36.08,80.48,36.08,13.76,0,26.73-2.49,38.54-7.41,10.93-4.55,21.95-11.87,32.82-21.77v29.18h62.46v-1.87c-35.36-14.91-63.09-49.86-68.6-85.92Z"/>
  </g>
  <g id="Layer_9" data-name="Layer 9">
    <path class="cls-1" d="m870.23,115.48c-9.99-9.58-20.9-16.96-32.48-21.95-12.6-5.42-26.26-8.18-40.61-8.18-31.17,0-58.04,11.96-79.84,35.54-21.77,23.56-32.8,54.16-32.8,90.95s11.41,65.64,33.9,89.55c22.52,23.94,49.6,36.08,80.48,36.08,13.76,0,26.73-2.49,38.54-7.41,10.93-4.55,21.95-11.87,32.82-21.77v30.15h62.46V0h-62.46v115.48Zm-15.41,46.46c11.96,12.42,18.03,28.92,18.03,49.03s-6.07,37.38-18.03,50.02c-11.94,12.62-27.19,19.02-45.34,19.02s-32.57-6.51-44.58-19.34c-12.04-12.85-18.15-29.5-18.15-49.48s6-36.3,17.83-48.94c11.8-12.61,26.83-19.01,44.69-19.01s33.62,6.29,45.57,18.7Z"/>
  </g>
</svg>