<?xml version="1.0" encoding="UTF-8"?>
<svg width="713px" height="737px" viewBox="0 0 713 737" version="1.1" xmlns="http://www.w3.org/2000/svg" xmlns:xlink="http://www.w3.org/1999/xlink">
    <title>last-path</title>
    <g id="Page-1" stroke="none" stroke-width="1" fill="none" fill-rule="evenodd">
        <g id="last-path" transform="translate(356.798676, 367.796501) scale(-1, 1) translate(-356.798676, -367.796501) translate(2.195642, 0.757599)">
            <path d="M52.3773547,525.721374 C44.3505999,553.628409 48.1660386,582.521274 63.1138219,607.077109 C78.6110556,632.53197 104.534197,650.679913 136.115655,658.175938 C163.704212,664.720234 195.42218,660.733514 205.991423,652.769376 C213.257138,627.202911 214.499373,600.43051 212.595067,584.647937 C193.664621,598.703758 175.054972,599.993397 165.400342,599.45088 C161.247042,599.218373 157.243903,598.647956 153.489894,597.75823 C126.389358,591.328637 111.513242,567.141713 118.884752,541.503946 C126.065148,516.548199 153.561561,501.385646 180.191139,507.703635 C183.614114,508.518959 187.033675,509.690794 190.35768,511.191239 C196.797512,514.099126 202.479718,518.302852 207.254135,523.681513 C222.270173,539.535387 229.972718,563.985819 230.098989,596.310486 C230.221848,627.078907 223.331534,655.680363 219.867607,668.080734 L281.911146,682.803075 L282.856473,679.507676 C313.287839,557.977839 279.815726,466.807211 197.568791,447.289027 C166.673293,439.957307 134.457066,444.275737 106.854858,459.44139 C79.7304329,474.349737 60.3836331,497.888741 52.3773547,525.721374 Z" id="Stroke-9-Copy-3" stroke="#EFEFEF" stroke-width="2" stroke-dasharray="4" transform="translate(171.103718, 563.303075) rotate(-139.000000) translate(-171.103718, -563.303075) "></path>
            <path d="M204.291721,241.041556 C190.320465,289.616144 196.961564,339.906653 222.979463,382.64819 C249.953727,426.95456 295.075179,458.542612 350.045416,471.590085 C398.065665,482.980993 453.273508,476.041766 471.670183,462.179501 C484.316782,417.678875 486.479,371.079215 483.164391,343.608294 C450.214326,368.073655 417.822636,370.318382 401.017925,369.374086 C393.788751,368.969387 386.820943,367.976528 380.286768,366.427882 C333.115961,355.236625 307.222805,313.137209 320.05355,268.512477 C332.551646,225.074859 380.411511,198.683133 426.762576,209.680135 C432.720556,211.099277 438.672596,213.138957 444.458312,215.75061 C455.667393,220.812037 465.557758,228.128982 473.868042,237.491003 C500.004744,265.086031 513.411684,307.644104 513.63147,363.907961 C513.845315,417.463036 501.852133,467.246323 495.822871,488.830233 L603.814972,514.455729 L605.460396,508.719805 C658.428799,297.1867 600.167714,138.496402 457.009869,104.523328 C403.233604,91.7618417 347.158498,99.2784382 299.114488,125.675559 C251.902099,151.624815 218.227335,192.596471 204.291721,241.041556 Z" id="Stroke-9-Copy-2" stroke="#DADADA" stroke-width="2" stroke-dasharray="5" transform="translate(410.945139, 306.455729) rotate(45.000000) translate(-410.945139, -306.455729) "></path>
            <path d="M199.703813,216.054922 C186.7401,261.126535 192.902273,307.790325 217.043881,347.44954 C242.072886,388.560739 283.940387,417.870806 334.946424,429.977356 C379.503675,440.546804 430.730183,434.108002 447.800174,421.245419 C459.53476,379.953973 461.541048,336.714865 458.465474,311.22502 C427.891615,333.926053 397.835864,336.0089 382.243031,335.132702 C375.535192,334.757189 369.069871,333.83593 363.00691,332.398965 C319.237844,322.01477 295.211983,282.95137 307.117434,241.544767 C318.714224,201.23967 363.122657,176.751194 406.131097,186.955143 C411.659415,188.271943 417.182222,190.16453 422.550698,192.587843 C432.951432,197.284263 442.12855,204.073544 449.839534,212.760419 C474.091378,238.365421 486.531471,277.854403 486.735407,330.060769 C486.933831,379.7537 475.805542,425.946846 470.211083,445.974224 L570.415291,469.751727 L571.942055,464.429452 C621.090621,268.151138 567.031057,120.904851 434.197095,89.381759 C384.298926,77.540572 332.267698,84.5151062 287.6884,109.008589 C243.880751,133.086504 212.634455,171.103473 199.703813,216.054922 Z" id="Stroke-9" fill="#422E87" fill-rule="nonzero" transform="translate(391.454341, 276.751728) rotate(45.000000) translate(-391.454341, -276.751728) "></path>
            <path d="M61.9893073,513.460928 C54.7014169,538.799114 58.1656437,565.032385 71.7374804,587.32785 C85.8081905,610.439586 109.345102,626.917007 138.01948,633.723021 C163.068505,639.664913 191.866827,636.045172 201.463169,628.814135 C208.060073,605.601068 209.187961,581.293072 207.458946,566.963289 C190.271052,579.725268 173.374425,580.896195 164.608506,580.403618 C160.837518,580.192513 157.202869,579.674603 153.794417,578.866776 C129.188491,573.029029 115.681725,551.068516 122.374685,527.790711 C128.894124,505.132146 153.859487,491.365308 178.037807,497.101725 C181.145696,497.841999 184.250486,498.905966 187.268515,500.268295 C193.11556,502.90851 198.274717,506.725282 202.609648,511.608836 C216.243457,526.003358 223.236981,548.203123 223.351629,577.552298 C223.463178,605.488479 217.207119,631.457165 214.062047,642.716079 L270.394465,656.083225 L271.252776,653.091169 C298.882928,542.748179 268.491929,459.969826 193.815842,442.248295 C165.764281,435.591462 136.513564,439.512378 111.452145,453.282031 C86.824529,466.81806 69.2586061,488.190295 61.9893073,513.460928 Z" id="Stroke-9-Copy" fill="#FFC628" fill-rule="nonzero" transform="translate(169.786884, 547.583225) rotate(-139.000000) translate(-169.786884, -547.583225) "></path>
        </g>
    </g>
</svg>