<?xml version="1.0" encoding="UTF-8"?>
<svg width="355px" height="130px" viewBox="0 0 355 130" version="1.1" xmlns="http://www.w3.org/2000/svg" xmlns:xlink="http://www.w3.org/1999/xlink">
    <title>Asset 1</title>
    <g id="Page-1" stroke="none" stroke-width="1" fill="none" fill-rule="evenodd">
        <g id="---2-final" transform="translate(-914.000000, -377.000000)" fill-rule="nonzero">
            <g id="Group-11" transform="translate(914.000000, 37.000000)">
                <g id="Asset-1" transform="translate(0.000000, 340.000000)">
                    <g id="Group" transform="translate(270.349804, 24.741926)" fill="#FFC628">
                        <path d="M0,37.2416881 L0,71.1723732 L20.5360872,71.1723732 L20.5360872,68.9459503 C11.0464873,62.3557385 4.15169994,51.6985942 0,37.2416881 Z" id="Path"></path>
                        <path d="M80.8247014,36.4995472 C80.8878086,27.0087415 77.2922897,17.8591385 70.786484,10.955055 C64.068695,3.89095662 54.7294038,-0.0742836381 44.9866344,0.00105428987 C36.312547,0.00105428987 27.3270821,3.74144478 24.8805446,7.1256076 C24.9015379,14.8204424 26.1941567,22.4587856 28.7060396,29.7312215 C31.6789672,25.3953019 36.2009074,22.3669345 41.3390694,21.2708145 C42.5393863,21.0247897 43.7614146,20.9004716 44.9866344,20.899744 C53.4976192,20.899744 59.9179267,27.5938555 59.9179267,36.4698615 C60.04179,44.9866611 53.2570486,51.9975012 44.7493944,52.1438788 C43.6435992,52.1390017 42.540997,52.0246501 41.4576894,51.8024939 C39.2758994,51.3267706 37.2224512,50.3850564 35.4377245,49.0417295 C29.6698271,45.0638539 25.3401971,37.7315012 22.5674547,27.2673135 C20.5914096,19.398447 19.5659217,11.3206154 19.5129897,3.20710328 L0.0148274998,3.20710328 L0.0148274998,4.35000037 C1.33447498,46.0880085 18.9050622,73.072255 44.7493944,73.072255 C54.4282079,73.0743497 63.690325,69.1298634 70.400969,62.1479391 C77.0925723,55.2920413 80.8345548,46.0846067 80.8247014,36.4995472 L80.8247014,36.4995472 Z" id="Path"></path>
                    </g>
                    <ellipse id="Oval" fill="#FFC628" cx="279.691129" cy="10.6423015" rx="10.6313174" ry="10.6423015"></ellipse>
                    <path d="M144.375365,37.9976176 L144.375365,25.9155626 L126.582366,25.9155626 L126.582366,60.8555595 C126.582366,67.0004867 126.226506,71.0525764 125.544441,72.893086 C124.764777,75.1600072 123.28477,77.1197933 121.318603,78.4888289 C119.236337,79.788407 116.817326,80.4441253 114.364506,80.373867 C111.929158,80.4581797 109.526959,79.7896371 107.484546,78.4591433 C105.596168,77.1343841 104.178349,75.2420051 103.436639,73.056357 C102.576644,70.7111916 102.146646,66.4216168 102.146646,60.3063752 L102.146646,25.9155626 L84.1312338,25.9155626 L84.1312338,56.046486 C84.1312338,66.5848878 84.7984713,73.9766118 86.1329463,77.9990159 C87.7965892,83.5369876 91.2489084,88.3658315 95.9487511,91.7286238 C100.589759,94.9940441 106.757998,96.6564398 114.171748,96.6564398 C120.16716,96.8885565 126.106898,95.4278053 131.312338,92.4410791 C135.870248,89.5418445 139.438696,85.3225833 141.543313,80.3441813 C141.804944,79.7237484 142.032636,79.0895162 142.225378,78.4443005 C138.658609,72.7951841 136.842525,66.2154051 137.006098,59.5345486 C137.020926,50.4655859 139.956771,42.4949919 144.375365,37.9976176 Z" id="Path" fill="#FFFFFF"></path>
                    <g id="Group" transform="translate(32.620500, 24.281326)" fill="#FFFFFF">
                        <path d="M48.4859243,48.5227026 C48.0637584,49.0980927 47.6082674,49.6482202 47.1217943,50.1702556 C43.780497,53.7491993 39.0693628,55.7263547 34.177387,55.6027275 C29.3411148,55.677828 24.7063695,53.6662819 21.4553922,50.0811987 C19.6007716,48.0864387 18.2129667,45.7034379 17.3926573,43.1050736 C16.1488654,49.8540413 11.1422472,55.2873308 4.52238744,57.0721666 C5.61531776,58.7169778 6.84545445,60.2661681 8.19960738,61.7031263 C14.0160928,68.2726779 22.3684071,72.0288874 31.1377496,72.0188857 C34.904675,72.0495129 38.6398895,71.3279373 42.1249269,69.8963626 C45.5777046,68.3691907 48.7463933,66.2662599 51.4959068,63.6772212 L51.4959068,95.0252558 L69.2889065,95.0252558 L69.2889065,74.0820376 C57.3039698,71.371428 48.7162749,60.8202595 48.4859243,48.5227026 L48.4859243,48.5227026 Z" id="Path"></path>
                        <path d="M16.3102498,35.4610216 C16.2147542,30.4826846 18.0235418,25.6560374 21.3664272,21.9688988 C24.6346296,18.409603 29.2749598,16.430423 34.1032495,16.5364269 C38.9968125,16.4011499 43.7196896,18.3418482 47.1069668,21.8798419 C50.373669,25.3919523 52.1953491,30.0091696 52.2076268,34.8079375 C56.0181872,28.5479315 62.1851331,24.0864525 69.3185615,22.4290262 L69.3185615,1.73813594 L51.5255618,1.73813594 L51.5255618,8.61036132 C48.8348687,5.98533968 45.6962527,3.86395661 42.2583744,2.34669154 C38.5949533,0.777074935 34.6480848,-0.0211981248 30.6632696,0.00152607565 C21.9588699,-0.0862849378 13.646508,3.61913817 7.88822989,10.1540145 C4.15359988,14.177512 1.44715799,19.0459926 0,24.3437499 C7.0134074,25.6796036 13.6116448,29.8949643 16.3102498,35.4610216 Z" id="Path"></path>
                    </g>
                    <path d="M33.050497,52.6920088 L26.5412246,49.5750168 C24.6794168,48.8560665 22.9390971,47.8548494 21.3812547,46.6064529 C20.7741762,46.0241069 20.4268093,45.2216627 20.4174672,44.38003 C20.420296,43.2935842 20.9802098,42.2846981 21.9002172,41.7083225 C23.2296761,40.878335 24.7846023,40.4840134 26.3484671,40.5802682 C27.6509506,40.6097488 28.9371955,40.8763168 30.1443071,41.3669376 C31.0744001,38.302529 32.6578524,35.4767166 34.7853145,33.0846444 C36.3967957,31.0913861 38.2496201,29.3064494 40.3011444,27.7709151 L39.3818394,27.2959449 C35.2695903,25.3340848 30.7703998,24.3197066 26.2150196,24.327381 C20.0760952,24.0856622 14.0668296,26.1384362 9.35615237,30.0863949 C5.16185815,33.5324074 2.73437481,38.6811559 2.74308746,44.1128592 C2.74308746,52.5435806 8.67408738,59.6532911 20.1505722,65.2193484 L26.0815721,68.0691697 C31.0487846,70.4737064 33.5694595,72.9227716 33.5694595,75.3421512 C33.5091575,76.6956173 32.7958915,77.9354364 31.6567121,78.6669427 C30.0736056,79.7388959 28.1824813,80.260405 26.2743296,80.1512247 C23.7327635,80.0255569 21.255372,79.3090136 19.0385097,78.0583872 C16.3339391,76.7031821 13.9013298,74.8617464 11.8619998,72.6259153 L11.5209673,72.2696876 L0,84.2626857 L0.222412497,84.559542 C6.23966746,92.2398984 15.5500246,96.5939974 25.2957146,96.2853694 C33.139462,96.2853694 39.4856319,94.2222175 44.1711219,90.1404421 C52.2071808,83.2200716 53.5819824,71.2798915 47.3293793,62.7109119 C44.7345669,59.3712775 39.9304569,55.9425863 33.050497,52.6920088 Z" id="Path" fill="#FFFFFF"></path>
                    <path d="M192.846462,71.3197472 C192.846462,71.2306902 192.846462,71.1564761 192.846462,71.082262 C192.151173,72.3611415 191.266306,73.5271699 190.221995,74.540639 C186.886387,78.118862 182.179991,80.0962942 177.292415,79.9731109 C172.460513,80.0477954 167.830493,78.0359553 164.585248,74.451582 C161.079369,70.6009456 159.221481,65.5277729 159.41045,60.321218 C159.2142,55.1741743 161.039904,50.1549607 164.496283,46.3392821 C167.76564,42.7728121 172.413767,40.7926119 177.247933,40.9068102 C182.140134,40.7789677 186.860124,42.7184796 190.25165,46.2502252 C193.36693,49.5948866 195.168127,53.9549125 195.322655,58.5252368 C199.146238,52.1938572 205.302146,47.6201326 212.463245,45.7900978 L212.463245,26.1233621 L194.670245,26.1233621 L194.670245,32.9807447 C191.963061,30.3483194 188.803621,28.226441 185.343747,26.7170749 C181.686054,25.1457873 177.743667,24.3473997 173.76347,24.3719094 C165.060706,24.2919859 156.751471,27.9960153 150.98843,34.5243979 C144.775708,41.2630379 141.617451,49.9906157 141.617451,60.4993318 C141.344338,69.9629569 144.800868,79.1543507 151.240498,86.0883524 C157.065429,92.6531197 165.422101,96.4034573 174.193468,96.3892691 C177.965304,96.4210765 181.705597,95.6994935 185.195472,94.2667459 C188.649916,92.7507616 191.815542,90.646534 194.551625,88.0476046 L194.551625,96.3892691 L212.344625,96.3892691 L212.344625,95.8549276 C202.336062,91.5950384 194.418177,81.6355066 192.846462,71.3197472 Z" id="Path" fill="#FFFFFF"></path>
                    <path d="M248.301312,32.9807447 C245.611838,30.3542236 242.472936,28.2326473 239.034124,26.7170749 C235.370703,25.1474583 231.423834,24.3491852 227.439019,24.3719094 C218.722006,24.28494 210.396307,27.9890738 204.619497,34.5243979 C198.406775,41.2630379 195.263345,49.9906157 195.263345,60.4993318 C195.012636,69.9756888 198.501972,79.1693226 204.975357,86.0883524 C210.806029,92.6538427 219.167435,96.4038819 227.943154,96.3892691 C231.710189,96.4210915 235.445637,95.6994707 238.930332,94.2667459 C242.391042,92.7541212 245.562095,90.649621 248.301312,88.0476046 L248.301312,96.6564398 L266.094311,96.6564398 L266.094311,0 L248.301312,0 L248.301312,32.9807447 Z M243.853062,46.2502252 C247.39851,50.0336735 249.288045,55.0776413 249.101996,60.2618467 C249.325521,65.5129517 247.477532,70.6414887 243.956854,74.540639 C240.620133,78.117262 235.914489,80.0943778 231.027274,79.9731109 C226.189844,80.0540346 221.552802,78.0414917 218.305279,74.451582 C214.7954,70.6024313 212.932304,65.5295766 213.115654,60.321218 C212.92891,55.1756707 214.75335,50.1599329 218.201487,46.3392821 C221.47427,42.7776651 226.120091,40.7984472 230.953137,40.9068102 C235.82488,40.7957514 240.520078,42.7339159 243.897544,46.2502252 L243.853062,46.2502252 Z" id="Shape" fill="#FFFFFF"></path>
                    <text id="Teams-by-Ibtikar" fill="#FFFFFF" font-family="DINNextLTArabic-Medium, DIN Next LT Arabic" font-size="21.683159" font-weight="400">
                        <tspan x="196.345752" y="123.086882">Teams by Ibtikar</tspan>
                    </text>
                </g>
            </g>
        </g>
    </g>
</svg>