<?xml version="1.0" encoding="UTF-8"?>
<svg width="103px" height="97px" viewBox="0 0 103 97" version="1.1" xmlns="http://www.w3.org/2000/svg" xmlns:xlink="http://www.w3.org/1999/xlink">
    <title>Mask</title>
    <defs>
        <path d="M99.7511101,66.0620258 C102.920378,54.1982818 101.419945,41.5569469 95.563945,30.7846408 C89.5154664,19.7398774 79.203283,11.7187293 67.0810918,8.62976125 C56.3261555,5.78371134 43.9503812,7.50497506 39.8307509,10.9645447 C37.3638779,20.5984331 36.4910512,30.5775653 37.2475402,40.4987033 C42.3496597,36.0733352 48.9302497,33.7759315 55.6508063,34.0737883 C57.2246048,34.1698823 58.785329,34.4210289 60.3107159,34.8236457 C70.8799311,37.6015268 76.6879344,48.082489 73.8177002,59.2110554 C71.2134549,69.9119485 60.5157161,76.4625251 49.910338,73.8503181 C48.5394889,73.491751 47.2096611,72.9890985 45.9426613,72.3506032 C43.3800057,71.0469024 41.1277788,69.1979738 39.3411228,66.9311788 C33.4824683,60.1142928 30.4771643,49.4629084 30.4265131,35.4371655 C30.5037495,24.9316777 31.8244153,14.4731433 34.3604223,4.28399642 L10.1998041,-2.1068342 L9.82836201,-0.675288144 C-1.99024927,52.0192407 11.0102231,91.5401373 43.1061946,99.9930759 C55.1414291,103.197203 67.951263,101.294634 78.5620285,94.7270315 C89.0615314,88.3305388 96.6662254,78.0427595 99.7511101,66.0620258 Z" id="path-1"></path>
    </defs>
    <g id="Page-1" stroke="none" stroke-width="1" fill="none" fill-rule="evenodd">
        <g id="---2-final" transform="translate(-725.000000, -2900.000000)">
            <g id="Group-10" transform="translate(698.000000, 2899.202278)">
                <g id="Group-9" transform="translate(25.473193, 0.000000)">
                    <mask id="mask-2" fill="white">
                        <use xlink:href="#path-1"></use>
                    </mask>
                    <use id="Mask" fill="#422E87" transform="translate(53.451807, 49.703977) rotate(88.000000) translate(-53.451807, -49.703977) " xlink:href="#path-1"></use>
                </g>
            </g>
        </g>
    </g>
</svg>