<?xml version="1.0" encoding="UTF-8"?>
<svg width="59px" height="72px" viewBox="0 0 59 72" version="1.1" xmlns="http://www.w3.org/2000/svg" xmlns:xlink="http://www.w3.org/1999/xlink">
    <title>small-shape-1</title>
    <g id="Client" stroke="none" stroke-width="1" fill="none" fill-rule="evenodd">
        <g id="02.01.squadio2-final-design" transform="translate(-279.000000, -2179.000000)" fill="#4C3699">
            <g id="how-it-work" transform="translate(0.000000, 1943.000000)">
                <g id="Step---3" transform="translate(267.983497, 234.000000)">
                    <path d="M13.7590121,31.8376452 C11.8046263,39.3106588 12.7336243,47.0476602 16.3731692,53.6232812 C20.1464964,60.4396459 26.4583647,65.2993461 34.1479419,67.3066497 C40.865312,69.0590971 48.5881271,67.9915237 51.1615678,65.8588675 C52.9306525,59.0126174 53.233117,51.8434388 52.7694489,47.6171433 C48.1601897,51.3810451 43.6290394,51.7263876 41.2782923,51.5811113 C40.2670306,51.51885 39.2923306,51.3661024 38.3782896,51.1278492 C31.7797449,49.4061174 28.1576499,42.9292842 29.9524939,36.0639407 C31.700805,29.3812302 38.3957395,25.3209648 44.8796136,27.0128113 C45.7130528,27.2311408 46.545661,27.5449376 47.3550027,27.9467304 C48.9229984,28.7254115 50.306524,29.8510954 51.469018,31.2914062 C55.1251818,35.5367952 57.0006276,42.0841911 57.0313726,50.740169 C57.0612867,58.9794114 55.3836061,66.6383787 54.5401955,69.9589801 L69.6467996,73.9013642 L69.8769718,73.0189144 C77.2865201,40.4753597 69.1365986,16.0614676 49.1107923,10.8348409 C41.5882353,8.87153531 33.744102,10.0279348 27.0234082,14.0890304 C20.4190468,18.0812235 15.7084121,24.3845552 13.7590121,31.8376452 Z" id="small-shape-1" transform="translate(42.666973, 41.901364) rotate(-120.000000) translate(-42.666973, -41.901364) "></path>
                </g>
            </g>
        </g>
    </g>
</svg>