<?xml version="1.0" encoding="UTF-8"?>
<svg width="376px" height="469px" viewBox="0 0 376 469" version="1.1" xmlns="http://www.w3.org/2000/svg" xmlns:xlink="http://www.w3.org/1999/xlink">
    <title>squadio-shape-2</title>
    <g id="Client" stroke="none" stroke-width="1" fill="none" fill-rule="evenodd" opacity="0.285914103" stroke-dasharray="5">
        <g id="02.01.squadio2-final-design" transform="translate(-62.000000, -395.000000)" stroke="#DADADA" stroke-width="2">
            <g id="shapes-1">
                <path d="M49.5008364,537.293833 C36.4027846,582.83251 42.6288143,629.979862 67.0205945,670.050053 C92.3089675,711.587275 134.610329,741.201073 186.144925,753.43308 C231.16391,764.112056 282.921262,757.606531 300.168144,744.610657 C312.024332,702.89132 314.051411,659.204138 310.943965,633.45015 C280.053279,656.386426 249.68607,658.490858 233.931653,657.60558 C227.154302,657.226175 220.621983,656.295369 214.496193,654.843514 C170.273562,644.351711 145.998728,604.883509 158.027551,563.047822 C169.744516,522.325055 214.61314,497.582812 258.067264,507.892502 C263.65287,509.222947 269.232907,511.135147 274.657015,513.583571 C285.165529,518.328659 294.437747,525.188295 302.228637,533.96519 C326.731795,559.835529 339.300802,599.733723 339.506851,652.481088 C339.707331,702.688971 328.463723,749.360803 322.81129,769.595718 L424.053885,793.619621 L425.59647,788.242192 C475.254347,589.929906 420.63458,441.157751 286.4241,409.307995 C236.008852,397.344101 183.43844,404.390911 138.39718,429.138212 C94.1355665,453.465639 62.5654748,491.876566 49.5008364,537.293833 Z" id="squadio-shape-2" transform="translate(243.238416, 598.619621) rotate(-315.000000) translate(-243.238416, -598.619621) "></path>
            </g>
        </g>
    </g>
</svg>