<?xml version="1.0" encoding="UTF-8"?>
<svg width="1069px" height="1314px" viewBox="0 0 1069 1314" version="1.1" xmlns="http://www.w3.org/2000/svg" xmlns:xlink="http://www.w3.org/1999/xlink">
    <title>Stroke 9</title>
    <g id="Page-1" stroke="none" stroke-width="1" fill="none" fill-rule="evenodd" fill-opacity="0.0712310151">
        <g id="---2-final" transform="translate(-433.000000, -67.000000)" fill="#000000">
            <path d="M434.663505,605.525714 C398.690593,743.075871 415.789962,885.485053 482.780335,1006.51758 C552.233139,1131.98129 668.410964,1221.43015 809.947245,1258.37708 C933.588838,1290.63306 1075.7369,1270.98304 1123.1043,1231.72884 C1155.66651,1105.71505 1161.23375,973.757354 1152.69936,895.967102 C1067.86018,965.246419 984.458696,971.60288 941.190257,968.928888 C922.576722,967.782891 904.636149,964.97138 887.812083,960.586032 C766.357619,928.895405 699.688433,809.681195 732.724781,683.315966 C764.904631,560.312327 888.13327,485.578066 1007.47708,516.718615 C1022.81757,520.737243 1038.14276,526.513066 1053.03971,533.908564 C1081.90063,548.241162 1107.36615,568.960782 1128.7633,595.471504 C1196.05957,673.613195 1230.57949,794.126201 1231.14539,953.450293 C1231.696,1105.10385 1200.81619,1246.07671 1185.29216,1307.19654 L1463.3481,1379.76104 L1467.5847,1363.51845 C1603.9667,764.513648 1453.95721,315.145446 1085.35721,218.942849 C946.895145,182.805755 802.514067,204.090732 678.811296,278.840273 C557.24977,352.321577 470.54465,468.342277 434.663505,605.525714 Z" id="Stroke-9" transform="translate(966.750652, 790.761043) rotate(200.000000) translate(-966.750652, -790.761043) "></path>
        </g>
    </g>
</svg>