<?xml version="1.0" encoding="UTF-8"?>
<svg width="189px" height="95px" viewBox="0 0 189 95" version="1.1" xmlns="http://www.w3.org/2000/svg" xmlns:xlink="http://www.w3.org/1999/xlink">
    <title>sabbar-logo</title>
    <defs>
        <path d="M0,47.6693995 C0,72.0644208 18.3192803,92.1794048 41.9501693,95 L53.3662195,95 C75.1881093,92.3953426 92.4808012,75.0428741 95,53.1899626 L95,42.1480918 C92.2649124,18.4217333 72.1120663,0 47.6578221,0 C21.3372567,0 0,21.3421067 0,47.6693995" id="path-1"></path>
        <path d="M0,47.6693995 C0,72.0644208 18.3192803,92.1794048 41.9501693,95 L53.3662195,95 C75.1881093,92.3953426 92.4808012,75.0428741 95,53.1899626 L95,42.1480918 C92.2649124,18.4217333 72.1120663,0 47.6578221,0 C21.3372567,0 0,21.3421067 0,47.6693995" id="path-3"></path>
        <path d="M0,47.6693995 C0,72.0644208 18.3192803,92.1794048 41.9501693,95 L53.3662195,95 C75.1881093,92.3953426 92.4808012,75.0428741 95,53.1899626 L95,42.1480918 C92.2649124,18.4217333 72.1120663,0 47.6578221,0 C21.3372567,0 0,21.3421067 0,47.6693995" id="path-5"></path>
        <path d="M0,47.6693995 C0,72.0644208 18.3192803,92.1794048 41.9501693,95 L53.3662195,95 C75.1881093,92.3953426 92.4808012,75.0428741 95,53.1899626 L95,42.1480918 C92.2649124,18.4217333 72.1120663,0 47.6578221,0 C21.3372567,0 0,21.3421067 0,47.6693995" id="path-7"></path>
        <path d="M0,47.6693995 C0,72.0644208 18.3192803,92.1794048 41.9501693,95 L53.3662195,95 C75.1881093,92.3953426 92.4808012,75.0428741 95,53.1899626 L95,42.1480918 C92.2649124,18.4217333 72.1120663,0 47.6578221,0 C21.3372567,0 0,21.3421067 0,47.6693995" id="path-9"></path>
    </defs>
    <g id="Client" stroke="none" stroke-width="1" fill="none" fill-rule="evenodd">
        <g id="02.01.squadio2-final-design" transform="translate(-241.000000, -2953.000000)">
            <g id="sabbar-logo" transform="translate(241.000000, 2953.000000)">
                <path d="M7.10215004,76.2056938 C7.14017331,75.8699681 7.04772458,75.5879282 6.8240583,75.3610864 C6.60039202,75.1342447 6.27831257,74.9164766 5.85931106,74.7092945 C5.37436181,74.4714434 4.88231172,74.2487811 4.38385915,74.0416237 C3.76438456,73.7765219 3.16785115,73.4593508 2.60049332,73.0934252 C2.15801186,72.8385165 1.76654975,72.5017678 1.4463753,72.1006145 C1.15212042,71.7312694 0.92904377,71.3090503 0.788796425,70.8560095 C0.652674833,70.4150997 0.593385483,69.9534976 0.61359117,69.4919345 C0.635523033,69.0162245 0.74448654,68.5487984 0.934925063,68.1134929 C1.11477352,67.7008155 1.37320563,67.3282207 1.69539043,67.0170911 C2.00316724,66.7236711 2.35278041,66.4789596 2.73245643,66.2911976 C3.09859215,66.1078892 3.48649233,65.9731955 3.88657445,65.8904438 C4.24221486,65.8151055 4.60432554,65.7755943 4.96762815,65.7724861 L5.31878421,65.7724861 C6.35137689,65.831465 7.29599416,66.0885523 8.15338157,66.5429919 C8.99833488,66.9871262 9.74457842,67.6021698 10.3460567,68.3501644 L10.4332866,68.440145 L10.3460567,68.5581027 C10.1507215,68.8356058 9.93674741,69.0420317 9.70264336,69.1804052 C9.4842618,69.3204087 9.23031834,69.39268 8.97200017,69.3883435 C8.69912731,69.3883435 8.43594665,69.3339014 8.18320375,69.2257735 C7.92971529,69.1168895 7.65684243,69.0034686 7.36458515,68.8839987 C6.99404467,68.7267217 6.64885304,68.5936412 6.3267736,68.4832449 C6.01118139,68.3762316 5.68062485,68.3215908 5.34786083,68.3214311 C4.91916712,68.3214311 4.59783323,68.4151924 4.38385915,68.6027149 C4.16913952,68.7909935 4.04239529,69.0132984 4.00362647,69.2696296 C3.96411209,69.6454308 4.08116411,69.9562039 4.35403698,70.2034614 C4.62690984,70.4507189 5.02652694,70.6828536 5.55288826,70.8991094 C6.15678722,71.1561967 6.79945501,71.4389928 7.48163717,71.744473 C8.16307378,72.0514655 8.7677183,72.4265105 9.29333406,72.8711203 C9.80988524,73.3030684 10.2200981,73.8511392 10.4914398,74.4718668 C10.7643127,75.0941693 10.7933893,75.8503085 10.5794152,76.7395281 C10.4824931,77.0949135 10.3162345,77.4654216 10.082876,77.8502965 C9.848772,78.2359274 9.52221923,78.586776 9.10321772,78.9028421 C8.68421622,79.2189083 8.17873042,79.4812886 7.58377811,79.6884707 C6.98957135,79.8964089 6.29396921,80 5.49398947,80 C5.33816862,80 5.2114244,79.9901702 5.11375679,79.9697544 C4.17883172,79.9304352 3.25881775,79.6839338 2.35222374,79.2287381 C1.4463753,78.7750546 0.691128815,78.1724117 0.0872298504,77.4215656 L0,77.3323412 L0.0872298504,77.2136273 C0.184151906,77.0548381 0.292257277,76.9278067 0.408563744,76.8279964 C0.525615765,76.7296983 0.632975581,76.6404738 0.729897637,76.5618354 C0.946939703,76.4472523 1.18753802,76.3861193 1.43220977,76.3833865 C1.70433708,76.3833865 1.96751774,76.4385847 2.22100619,76.5467126 C2.47449465,76.6555966 2.74662196,76.7690175 3.03887923,76.8869752 C3.3117521,77.0261048 3.61892046,77.1440625 3.95963877,77.2438729 C4.30035707,77.342171 4.67611643,77.4117358 5.08542572,77.4502989 C5.78624674,77.4502989 6.28800477,77.3126815 6.58995426,77.0359346 C6.89190374,76.7591877 7.06263567,76.4824408 7.10140449,76.2056938 M14.3489376,72.1149812 C14.9001132,71.7686513 15.5020853,71.5134178 16.1323034,71.358842 C16.8109573,71.1893737 17.5075168,71.1048132 18.2064354,71.1070477 C19.2203893,71.1070477 20.1843909,71.255251 21.1006772,71.5531698 C21.0417784,70.9391848 20.9150341,70.3962769 20.7204445,69.9221777 C20.466956,69.309705 20.0867233,68.8650952 19.5812375,68.5883483 C19.3820267,68.4871623 19.170785,68.4124449 18.9527353,68.3660434 C18.6976359,68.3132719 18.4376876,68.288429 18.1773588,68.2919417 L17.8567705,68.2919417 C17.5806737,68.3122707 17.3068004,68.3565405 17.0381519,68.4242661 C16.7618305,68.4956025 16.4889139,68.5798762 16.2202789,68.6768165 C15.9514741,68.7745702 15.67801,68.8586069 15.4009147,68.9286109 C15.1431894,68.9959399 14.8782525,69.0307335 14.6121183,69.0322019 C14.339991,69.0322019 14.0768103,68.9732231 13.8233219,68.8545092 C13.5899634,68.7168919 13.3856815,68.4885379 13.2097307,68.1724717 L13.1515774,68.054514 L13.2097307,67.9652896 C13.7970744,67.3310925 14.4959371,66.8136079 15.2704427,66.4394008 C16.0592391,66.0537699 16.9218454,65.831465 17.8567705,65.77173 C17.9383981,65.753818 18.0215405,65.7439423 18.1050401,65.7422406 L18.3533096,65.7422406 C19.2494659,65.7422406 20.0680845,65.9055666 20.8084199,66.2314626 C21.533202,66.5465591 22.1888661,67.0048684 22.7371688,67.5796587 C23.8480447,68.8053602 24.4221215,70.4159365 24.4623814,72.4113877 L24.4623814,72.6488154 C24.4623814,74.7040015 23.9457123,76.3743129 22.9131196,77.6582371 C22.4094613,78.2881005 21.7888771,78.8116543 21.0865116,79.1992487 C20.3745073,79.5947094 19.580492,79.8419669 18.7044657,79.940265 C18.5884294,79.9600953 18.4709814,79.9702113 18.3533096,79.9705106 L17.973077,79.9705106 C17.5645132,79.9705106 17.1358195,79.934972 16.6877414,79.8661634 C16.2332829,79.7948999 15.7907122,79.6602947 15.3725836,79.4661658 C14.9330927,79.2937653 14.5199207,79.059043 14.1454013,78.7690055 C13.7618609,78.4675771 13.4434004,78.0895212 13.2097307,77.6582371 C12.8391902,77.0850837 12.6446005,76.3833865 12.6252161,75.5539019 L12.6252161,75.3754531 C12.6252161,74.6049473 12.781037,73.9637413 13.0926787,73.4488106 C13.3655515,72.9353921 13.784553,72.4907823 14.3496832,72.1149812 M20.3998561,73.538035 C20.1463677,73.4979596 19.8585837,73.4593965 19.5372498,73.4193212 C19.2124197,73.3795434 18.8855264,73.3595862 18.5583371,73.3595862 C18.2854642,73.3595862 18.021538,73.3747089 17.7695406,73.4049545 C17.5299484,73.4309504 17.2942158,73.4855173 17.0672285,73.5675244 C16.5803816,73.7263136 16.2098411,73.972815 15.9563526,74.3085408 C15.8582818,74.428856 15.7795287,74.5641011 15.7229941,74.7092945 C15.6648409,74.8574978 15.6260721,75.0200677 15.6066877,75.1977604 C15.5832927,75.284652 15.5732341,75.3746799 15.5768655,75.4646775 C15.5768655,75.6620298 15.6066877,75.8745049 15.6648409,76.1021028 C15.7229941,76.3289445 15.8400462,76.5421758 16.0152514,76.7387719 C16.1718178,76.9368804 16.3999574,77.1047433 16.7026525,77.2431167 C17.0038564,77.3814902 17.4086924,77.4502989 17.9156693,77.4502989 C18.0707446,77.4502989 18.1877966,77.440469 18.2660798,77.4208094 C18.8103344,77.4011498 19.2889803,77.2431167 19.697544,76.9467102 C19.8928792,76.8279964 20.0583923,76.6850861 20.1948287,76.516467 C20.3312651,76.3486041 20.4475716,76.1663746 20.5452392,75.9682662 C20.7533418,75.6100965 20.9014774,75.2194246 20.9836251,74.8121294 C21.0578682,74.4514185 21.097073,74.0841957 21.1006772,73.7157277 C21.0812927,73.7157277 21.0663817,73.7111909 21.0559439,73.7013611 C21.0469972,73.6915312 21.0328317,73.6862383 21.0134473,73.6862383 C20.9261664,73.6645848 20.8384174,73.6449202 20.7502666,73.6272594 C20.6322577,73.6026186 20.5153465,73.5728497 20.3998561,73.538035 M29.6924446,66.4537675 C30.5498321,66.000084 31.5339637,65.77173 32.6448396,65.77173 C33.5279151,65.7646933 34.4014603,65.9571221 35.2020907,66.3350536 C35.9781189,66.7007018 36.6776911,67.2140913 37.2628028,67.8473319 C37.8682858,68.5025765 38.3486036,69.2660996 38.6793559,70.0991142 C39.0208198,70.9490146 39.1915517,71.8775535 39.1915517,72.8854869 C39.1915517,73.8541012 39.0349853,74.7682734 38.7240892,75.6280036 C38.4283216,76.4599177 37.9823269,77.2286678 37.4089314,77.8949087 C36.8315048,78.5366071 36.1303906,79.0513144 35.3489649,79.4071869 C34.5400386,79.7822319 33.6386634,79.9699562 32.6455851,79.9699562 C31.7625611,79.9770785 30.8890076,79.7849062 30.088334,79.4071869 C29.3123341,79.04149 28.6127704,78.5281068 28.0276219,77.8949087 C27.4311673,77.2435762 26.960305,76.4846813 26.6393999,75.657493 C26.297936,74.7977628 26.1279496,73.8737608 26.1279496,72.8854869 L26.1279496,62.3630548 C26.1279496,61.1781848 26.4440647,60.3328212 27.0777858,59.8284764 C27.7100158,59.3256439 28.6315209,59.0730934 29.8393188,59.0730934 C29.8130321,59.2499417 29.7936326,59.4277726 29.7811656,59.6061715 C29.7617812,59.8254519 29.7468701,60.1203461 29.7364323,60.4961473 C29.7267401,60.8711923 29.7215213,61.3558775 29.7215213,61.9486906 L29.7215213,62.8817662 C29.7215213,63.3263761 29.7177935,63.7966946 29.7081013,64.2896973 C29.6984091,64.7834562 29.6931902,65.2378958 29.6931902,65.6537723 L29.6931902,66.4537675 L29.6924446,66.4537675 Z M32.6448396,77.4208094 C32.898328,77.4208094 33.1958042,77.3618306 33.5365225,77.2431167 C33.8772408,77.1244029 34.2037936,76.9028541 34.5154353,76.576202 C34.8270769,76.2510622 35.0895121,75.7860366 35.3049772,75.1826376 C35.5189513,74.5799947 35.6255656,73.8049521 35.6255656,72.8559975 C35.6255656,71.9070429 35.5189513,71.1327564 35.3049772,70.5293574 C35.0902576,69.9267145 34.8270769,69.4632012 34.5146897,69.1365491 C34.2037936,68.809897 33.8772408,68.5883483 33.5365225,68.4688783 C33.1958042,68.3501644 32.898328,68.2919417 32.6455851,68.2919417 C32.3920967,68.2919417 32.093875,68.3501644 31.7539022,68.4688783 C31.4124384,68.5883483 31.0858856,68.809897 30.7749895,69.1365491 C30.4618567,69.4624451 30.1994215,69.9267145 29.9847019,70.5293574 C29.7707278,71.1327564 29.6641136,71.9070429 29.6641136,72.8559975 C29.6641136,73.8049521 29.7707278,74.5799947 29.9847019,75.1826376 C30.1994215,75.7860366 30.4618567,76.2503061 30.7749895,76.576202 C31.0858856,76.902098 31.4124384,77.1244029 31.7539022,77.2431167 C32.0946205,77.3618306 32.3920967,77.4208094 32.6455851,77.4208094 L32.6448396,77.4208094 Z M44.3649528,66.4537675 C45.2223402,66.000084 46.2064719,65.77173 47.3158566,65.77173 C48.2313973,65.77173 49.0843114,65.9607648 49.8731078,66.3350536 C50.6491359,66.7007018 51.3487082,67.2140913 51.9338198,67.8473319 C52.5395693,68.5025139 53.0201424,69.266041 53.3511185,70.0991142 C53.6918368,70.9490146 53.8625687,71.8775535 53.8625687,72.8854869 C53.8625687,73.8541012 53.7067479,74.7682734 53.3951062,75.6280036 C53.0993386,76.4599177 52.653344,77.2286678 52.0799485,77.8949087 C51.5023805,78.5364464 50.8013014,79.0511279 50.019982,79.4071869 C49.2110556,79.7822319 48.3096805,79.9699481 47.3158566,79.9699481 C46.432848,79.9769266 45.5593271,79.7847615 44.7586055,79.4071869 C43.982947,79.0412772 43.2836655,78.5279154 42.698639,77.8949087 C42.1021844,77.2435762 41.6313221,76.4846813 41.3104169,75.657493 C40.9689531,74.7977628 40.7989667,73.8737608 40.7989667,72.8854869 L40.7989667,62.3630548 C40.7989667,61.1781848 41.1150817,60.3328212 41.7488029,59.8284764 C42.3810329,59.3256439 43.302538,59.0730934 44.5103359,59.0730934 C44.4840492,59.2499417 44.4646497,59.4277726 44.4521827,59.6061715 C44.4327983,59.8254519 44.4178872,60.1203461 44.408195,60.4961473 C44.3977572,60.8711923 44.3932839,61.3558775 44.3932839,61.9486906 L44.3932839,62.8817662 C44.3932839,63.3263761 44.3888106,63.7966946 44.3791183,64.2896973 C44.3693467,64.7443219 44.364376,65.1990397 44.3642073,65.6537723 L44.3642073,66.4537675 L44.3649528,66.4537675 Z M47.3158566,77.4208094 C47.5693451,77.4208094 47.8675668,77.3618306 48.2075396,77.2431167 C48.5482579,77.1244029 48.8748106,76.9028541 49.1864523,76.576202 C49.498094,76.2510622 49.7612747,75.7860366 49.9767399,75.1826376 C50.1899684,74.5799947 50.2973282,73.8049521 50.2973282,72.8559975 C50.2973282,71.9070429 50.1899684,71.1327564 49.9767399,70.5293574 C49.7612747,69.9267145 49.498094,69.4632012 49.1864523,69.1365491 C48.8748106,68.809897 48.5482579,68.5883483 48.2075396,68.4688783 C47.8668213,68.3501644 47.5693451,68.2919417 47.3158566,68.2919417 C47.0631137,68.2919417 46.7656376,68.3501644 46.4249193,68.4688783 C46.0834554,68.5883483 45.7569026,68.809897 45.4460065,69.1365491 C45.1336193,69.4624451 44.8704386,69.9267145 44.6564645,70.5293574 C44.4417449,71.1327564 44.3358762,71.9070429 44.3358762,72.8559975 C44.3358762,73.8049521 44.4417449,74.5799947 44.6564645,75.1826376 C44.8704386,75.7860366 45.1336193,76.2503061 45.4467521,76.576202 C45.7569026,76.902098 46.0834554,77.1244029 46.4249193,77.2431167 C46.7656376,77.3618306 47.0631137,77.4208094 47.3158566,77.4208094 Z M57.6328367,72.1149812 C58.1838519,71.7688618 58.7855447,71.51364 59.415457,71.358842 C60.094353,71.1893124 60.7911665,71.1047514 61.4903346,71.1070477 C62.5035428,71.1070477 63.4682901,71.255251 64.3838307,71.5531698 C64.3256775,70.9391848 64.1989332,70.3962769 64.0043436,69.9221777 C63.7508551,69.309705 63.3706224,68.8650952 62.8643911,68.5883483 C62.6651802,68.4871623 62.4539385,68.4124449 62.2358888,68.3660434 C61.9810334,68.3133258 61.7213378,68.2884832 61.4612579,68.2919417 L61.139924,68.2919417 C60.8640777,68.3123135 60.5904556,68.3565831 60.322051,68.4242661 C60.0484326,68.494587 59.7763053,68.5785184 59.5034324,68.6768165 C59.2348722,68.7745461 58.9616576,68.8585826 58.6848138,68.9286109 C58.4270885,68.9959399 58.1621516,69.0307335 57.8960174,69.0322019 C57.6231445,69.0322019 57.3599639,68.9732231 57.1064754,68.8545092 C56.8731169,68.7168919 56.668835,68.4885379 56.4928842,68.1724717 L56.434731,68.054514 L56.4928842,67.9652896 C57.080228,67.3310925 57.7790906,66.8136079 58.5535963,66.4394008 C59.3423927,66.0537699 60.204999,65.831465 61.139924,65.77173 C61.2215517,65.753818 61.3046941,65.7439423 61.3881936,65.7422406 L61.6364632,65.7422406 C62.5326194,65.7422406 63.351238,65.9055666 64.092319,66.2314626 C64.8167769,66.5467528 65.4721612,67.0050437 66.0203223,67.5796587 C67.1311982,68.8053602 67.7060206,70.4159365 67.7455349,72.4113877 L67.7455349,72.6488154 C67.7455349,74.7040015 67.2288658,76.3743129 66.1962732,77.6582371 C65.6926148,78.2881005 65.0720307,78.8116543 64.3696652,79.1992487 C63.6576608,79.5947094 62.8643911,79.8419669 61.9876193,79.940265 C61.871583,79.9600953 61.7541349,79.9702113 61.6364632,79.9705106 L61.2569761,79.9705106 C60.8263115,79.9684224 60.3964094,79.933542 59.9708949,79.8661634 C59.5164596,79.7947961 59.0739028,79.660195 58.6557372,79.4661658 C58.2162463,79.2937653 57.8030743,79.059043 57.4285549,78.7690055 C57.0450145,78.4675771 56.726554,78.0895212 56.4928842,77.6582371 C56.1230893,77.0850837 55.9277541,76.3833865 55.9083697,75.5539019 L55.9083697,75.3754531 C55.9083697,74.6049473 56.0641905,73.9637413 56.3758322,73.4488106 C56.6487051,72.9353921 57.0677066,72.4907823 57.6328367,72.1149812 M63.6830097,73.538035 C63.4295212,73.4979596 63.1417373,73.4593965 62.8204034,73.4193212 C62.4955733,73.3795434 62.16868,73.3595862 61.8414906,73.3595862 C61.5686178,73.3595862 61.3054371,73.3747089 61.0526942,73.4049545 C60.8133314,73.4308694 60.5778363,73.4854393 60.3511276,73.5675244 C59.8635351,73.7263136 59.4929947,73.972815 59.2402518,74.3085408 C59.1419174,74.4288044 59.062911,74.5640523 59.0061477,74.7092945 C58.9479945,74.8574978 58.9092257,75.0200677 58.8898412,75.1977604 C58.8664463,75.284652 58.8563876,75.3746799 58.8600191,75.4646775 C58.8600191,75.6620298 58.8898412,75.8745049 58.9479945,76.1021028 C59.0061477,76.3289445 59.1231997,76.5421758 59.2991505,76.7387719 C59.4549714,76.9368804 59.683111,77.1047433 59.985806,77.2431167 C60.28701,77.3814902 60.6918459,77.4502989 61.1988228,77.4502989 C61.3538981,77.4502989 61.4709501,77.440469 61.5492333,77.4208094 C62.0942335,77.4011498 62.5721338,77.2431167 62.9814431,76.9467102 C63.1760328,76.8279964 63.3415458,76.6850861 63.4779823,76.516467 C63.6144187,76.3486041 63.7307252,76.1663746 63.8291383,75.9682662 C64.0369806,75.6100481 64.1848634,75.2193786 64.2667787,74.8121294 C64.3410218,74.4514185 64.3802266,74.0841957 64.3838307,73.7157277 C64.3644463,73.7157277 64.3495352,73.7111909 64.3405886,73.7013611 C64.3284182,73.6907188 64.3126433,73.6852955 64.2966009,73.6862383 C64.20932,73.6645848 64.121571,73.6449202 64.0334202,73.6272594 C63.9154113,73.6026186 63.7985001,73.5728497 63.6830097,73.538035 M69.9374645,72.5308577 C69.9374645,71.2068581 70.1268353,70.124823 70.5063224,69.2847524 C70.8865551,68.445438 71.3786209,67.7875969 71.9825199,67.3134977 C72.5798767,66.8424614 73.2739201,66.5135111 74.0134098,66.3509326 C74.7477014,66.1845763 75.497685,66.0998927 76.2500726,66.0983821 L77.6815368,66.0983821 C77.7784589,66.5135025 77.7985888,66.8991334 77.7411811,67.2545188 C77.7009212,67.5509254 77.5697037,67.836746 77.3460374,68.1134929 C77.1223711,68.3909959 76.7555584,68.5588588 76.2500726,68.6178377 C75.9169647,68.6582504 75.5887414,68.7327311 75.2704143,68.8401426 C74.941786,68.9535546 74.6455989,69.1469791 74.407808,69.4034662 C74.1550651,69.6703834 73.9455643,70.0507213 73.7800513,70.5444802 C73.6137927,71.038239 73.5317817,71.7006169 73.5317817,72.5308577 L73.5317817,76.8279964 C73.5317817,77.4215656 73.536255,77.9002016 73.5466928,78.266173 C73.5556394,78.6321443 73.5705505,78.9232579 73.5899349,79.1402698 C73.6093193,79.3776975 73.6287037,79.5553902 73.6480882,79.674104 C72.4596746,79.674104 71.544134,79.4223097 70.9014662,78.9179649 C70.2580529,78.4143762 69.936719,77.5697688 69.936719,76.3833865 L69.936719,72.5308577 L69.9374645,72.5308577 Z M7.82981102,32.1016107 C7.75227337,32.1515159 7.66578908,32.1923474 7.59496142,32.2483017 C6.96869583,32.7473535 6.63095974,33.6668187 6.63095974,34.8418589 L6.64065195,34.8630308 C6.63766973,34.9152044 6.63394196,34.9666219 6.63394196,35.0135025 L6.63394196,42.4886939 C6.63394196,46.3903718 4.94973485,48.7154997 1.58132062,49.461809 C0.785068654,49.6379894 0.239322923,50.3873233 0.239322923,51.2145395 L0.239322923,53.4799323 L1.06837928,53.3808781 C7.15433884,52.7873089 10.1976914,49.1729638 10.1976914,42.537843 L10.1976914,36.8274803 L10.1999281,36.6717156 C10.2096203,36.1824936 10.2148392,35.7167119 10.2148392,35.2758828 L10.2148392,34.3503685 C10.2148392,33.7620922 10.2193125,33.2827 10.2297502,32.9099234 C10.2386969,32.537903 10.2528624,32.244521 10.2722468,32.0282652 C10.2916312,31.7931059 10.3110157,31.6169255 10.3304001,31.4989678 C9.50656259,31.4989678 8.82736264,31.6259992 8.27416137,31.8634269 C8.10864839,31.903651 7.95581586,31.9855734 7.82981102,32.1016107 M31.1157078,22.1984565 C31.9947162,22.1984565 32.6612418,21.6540363 33.117521,20.565196 C33.6379179,21.7205766 34.3208456,22.3141458 35.1677953,22.3466598 C35.9491361,22.3466598 36.5507984,22.0827672 36.9735277,21.5549821 C37.3313938,21.0937372 37.5103268,20.5319259 37.5103268,19.8718164 L37.5103268,17 L36.0952648,17 L36.1437258,19.4748434 C36.1437258,20.3996015 35.7694576,20.8616025 35.0209211,20.8616025 C34.2075213,20.8616025 33.8004487,20.152344 33.8004487,18.7323147 L33.8004487,17.0007561 L32.3853867,17.0007561 L32.3853867,18.7323147 C32.3853867,20.152344 31.9947162,20.8616025 31.2133754,20.8616025 C30.4640933,20.9281428 30.0905706,20.4495067 30.0905706,19.4256943 L30.0905706,17 L28.7232241,17 L28.7232241,19.8718164 C28.7232241,20.4994119 28.9014116,21.0438321 29.2600232,21.5050769 C29.6827524,22.0343743 30.3008169,22.2649968 31.1149622,22.1984565 M27.039017,47.9344079 C26.2576761,47.9344079 25.590405,48.2141794 25.0372037,48.7759908 C24.4957734,49.3073014 24.1953875,50.0422399 24.2074018,50.8062243 C24.2074018,51.597902 24.4832569,52.2746465 25.0372037,52.8364579 C25.5614861,53.3849646 26.2858638,53.6895005 27.039017,53.6780408 C27.8203579,53.6780408 28.4868834,53.396757 29.0408302,52.8364579 C29.5932859,52.2746465 29.8706321,51.597902 29.8706321,50.8062243 C29.8706321,50.0137905 29.6022326,49.337046 29.0654335,48.7759908 C28.5286344,48.2141794 27.8524167,47.9344079 27.039017,47.9344079 M76.344758,34.912936 C74.6844086,31.0188195 71.771528,28.8411388 67.6061163,28.3776255 C65.555842,28.147003 63.1797606,28.7572073 60.4786174,30.2097506 C57.5277136,31.8210831 55.0286156,34.2513142 52.9835603,37.5012002 C52.9686492,37.5246405 52.9515014,37.548837 52.9343537,37.5700089 C52.3807446,38.2793538 51.7951083,38.962372 51.1793189,39.6168775 C50.6872531,40.1310521 49.8298657,39.7802036 49.8261379,39.0648959 L49.7918424,32.8872393 C49.7918424,32.8758972 49.7866235,32.8721165 49.785878,32.8607744 C49.7918424,32.7685254 49.7978068,32.6724957 49.8052624,32.5983941 C49.8261379,32.363991 49.847759,32.1870544 49.86938,32.0690967 C48.5348379,32.0690967 47.519393,32.3193788 46.8215542,32.8184306 C46.1222242,33.3182386 45.7464649,34.2377037 45.7464649,35.4127439 L45.7524293,35.424086 C45.7494471,35.4505509 45.7442282,35.4747474 45.7442282,35.5057491 L45.8336947,41.3990974 C45.8336947,42.3563696 45.4258766,42.8183706 44.6132224,42.7851005 L41.4886044,42.7359514 L41.4886044,42.7563672 C37.0346632,42.4750834 34.8009825,40.0796347 34.8009825,35.5564104 L34.8009825,33.4142682 C34.8106748,33.0770302 34.8233492,32.8002833 34.8427336,32.5983941 C34.8555761,32.4212188 34.8754738,32.2446422 34.9023779,32.0690967 C33.6759411,32.0690967 32.7417616,32.3193788 32.0990938,32.8184306 C31.4579172,33.3182386 31.1373288,34.1537723 31.1365833,35.3265441 L31.1358377,35.3273002 C31.1358377,39.8868192 28.8544416,42.5166711 24.2938861,42.7677093 C24.2529111,42.7699771 24.2118447,42.7699771 24.1708697,42.7677093 C19.6095686,42.5166711 17.3251903,40.1159293 17.3251903,35.5564104 L17.3251903,26.9712067 L17.3341369,26.3708322 C17.3438291,25.8816102 17.349048,25.4158285 17.349048,24.9749994 L17.349048,24.048729 C17.349048,23.4612089 17.3535214,22.9810605 17.3632136,22.6090401 C17.3729058,22.2370196 17.3870713,21.9436376 17.4064557,21.7273818 C17.4258401,21.4929787 17.4452245,21.3160422 17.4646089,21.1980844 C16.2665032,21.1980844 15.3531992,21.4476104 14.7261881,21.9474183 C14.0976858,22.4472263 13.7838075,23.2857846 13.7838075,24.4608248 L13.7838075,27.4626971 C13.7688964,27.576118 13.7614408,27.6721477 13.7614408,27.7371756 L13.7614408,35.6063156 C13.7614408,42.6157253 17.1522217,46.2467054 23.9151445,46.52194 L23.914399,46.5476488 C24.0105755,46.5476488 24.0978053,46.5355505 24.1924907,46.5332821 C24.3132705,46.5363067 24.4273403,46.5468926 24.5496112,46.5484049 L24.5488657,46.5143786 C28.0842841,46.3510526 30.707144,45.3090929 32.3980611,43.3688399 C32.5486418,43.193988 32.7669125,43.0944187 32.9958116,43.096162 C33.2247106,43.0979053 33.4414823,43.2007879 33.5894568,43.3779135 C35.3526927,45.4323436 38.1649234,46.4894261 42.026149,46.5476488 L42.0254035,46.4984997 L77.2081098,46.4984997 C77.6472413,46.4984997 78.0051074,46.1325284 77.9999448,45.6879186 C77.9432263,41.0036367 77.3907706,37.4119758 76.344758,34.912936 M72.9800715,42.7873689 L55.548267,42.8350056 C53.8558588,42.8350056 53.1229789,42.7692215 53.3518641,42.6368972 C53.6441213,42.4720589 55.0591834,40.8047721 57.5985412,37.6365491 C60.1721946,34.4380806 63.1275718,32.5303416 66.4661638,31.9133321 C66.5422103,31.8997215 66.6219846,31.8951847 66.6995223,31.9004777 C69.8561991,32.135637 71.997431,33.9496147 73.1224724,37.3393864 C73.5474383,38.7170719 73.762158,40.2694256 73.7688679,41.9956912 C73.7651802,42.4346114 73.4128624,42.7882161 72.9800715,42.7873689" id="Shape" fill="#FA4F0D" fill-rule="nonzero"></path>
                <g id="Clipped" transform="translate(94.000000, 0.000000)">
                    <mask id="mask-2" fill="white">
                        <use xlink:href="#path-1"></use>
                    </mask>
                    <g id="a"></g>
                    <path d="M46.3922672,73.1835746 C48.3293107,68.619095 49.6618657,63.8193176 50.7293985,58.9778419 C51.7991647,54.1318985 52.5860421,49.226386 53.3959972,44.3037474 C54.1858524,39.3654719 54.9124299,34.4666609 55.0977964,29.6050806 C55.296563,24.7516911 54.9652854,19.9385106 53.7950193,15.3993479 C53.1882973,13.1580618 52.4148199,10.8162529 51.3361204,9.23767273 C51.0772664,8.84809348 50.7789003,8.48627977 50.4457653,8.15798343 C50.116721,7.81918437 49.7809767,7.54218822 49.4817102,7.36645948 C49.1802103,7.18253999 48.9278438,7.09244178 48.7335439,7.06414648 C48.5298216,7.03382013 48.32173,7.05612073 48.1290553,7.12892784 C47.6451666,7.28529663 46.940178,7.86386117 46.3446228,8.6427267 C45.7401342,9.42457067 45.2063677,10.3813988 44.7664013,11.3829037 C43.8864684,13.3635751 43.4427797,15.653261 43.1360687,18.0494266 C42.9834577,19.2467649 42.8740244,20.476866 42.7668244,21.7278164 L42.4444801,25.4925813 C42.247668,27.977283 42.1081717,30.4661941 42.0261026,32.9573297 C41.8630693,37.9410266 41.9486804,42.9351481 42.2382691,47.9195896 C42.5479579,52.9710463 42.7668244,57.9904846 43.3683353,62.9056771 C43.6750462,65.362901 44.1053349,67.7948081 44.7455568,70.1544877 C45.0963861,71.4583834 45.5226786,72.7407839 46.0222785,73.9952031 C46.1458562,73.7249085 46.2783672,73.4575923 46.3922672,73.1835746" id="Path" fill="#FA4F0D" fill-rule="nonzero" mask="url(#mask-2)"></path>
                </g>
                <g id="Clipped" transform="translate(94.000000, 0.000000)">
                    <mask id="mask-4" fill="white">
                        <use xlink:href="#path-3"></use>
                    </mask>
                    <g id="c"></g>
                    <path d="M32.9699401,77.5149902 C33.444151,75.0451079 33.8915619,72.5722471 34.2444284,70.1008755 C34.9188948,65.1596216 35.2270946,60.1826262 34.5667727,55.324769 C34.2228395,52.9248803 33.7404398,50.4363826 32.9677068,48.2062657 C32.5813403,47.0893458 32.1212739,46.0252933 31.5383741,45.0915482 C31.2294298,44.6008481 30.9703633,44.2694952 30.6398301,43.9671821 C30.3204636,43.6738045 29.9832304,43.4720143 29.6720528,43.3714915 C29.355664,43.276181 29.0288531,43.2419288 28.8196643,43.3119224 C28.5963311,43.3662792 28.3759756,43.4869066 28.1124424,43.7222044 C27.5816538,44.1846092 27.0411873,45.0721883 26.6421653,46.0424194 C26.2305376,47.0514937 25.9309638,48.1027377 25.7488324,49.1772415 C25.5365665,50.341949 25.3793143,51.5160182 25.2775993,52.6955394 C25.08228,55.1065439 25.0144411,57.526186 25.074366,59.94435 C25.101166,62.3904047 25.188266,64.9295361 25.307377,67.3718677 C25.4272325,69.8171778 25.6066436,72.2021743 25.9773767,74.5052632 C26.3778877,76.7763338 26.9257985,79.0898474 27.8481647,80.956593 C28.3030201,81.8955503 28.8546532,82.7295173 29.5112529,83.3594601 C29.8462527,83.6796438 30.1738081,83.9402585 30.5847412,84.1740671 C30.6867301,84.2314023 30.7909523,84.2812914 30.8936855,84.3356482 C31.8019073,82.1047867 32.5284848,79.8433961 32.9706846,77.5149902" id="Path" fill="#FA4F0D" fill-rule="nonzero" mask="url(#mask-4)"></path>
                </g>
                <g id="Clipped" transform="translate(94.000000, 0.000000)">
                    <mask id="mask-6" fill="white">
                        <use xlink:href="#path-5"></use>
                    </mask>
                    <g id="e"></g>
                    <path d="M65.5118249,91.2188536 C64.531392,88.8480048 63.6402924,86.4227993 62.9353039,83.9283447 C62.6596662,82.9487808 62.4121609,81.9615144 62.1930931,80.9677622 C61.3310269,81.7220554 60.4250384,82.4398627 59.4364166,83.086187 C58.2728505,83.8434588 56.9603956,84.4897831 55.4424741,84.7742254 C54.6861189,84.9008097 53.858297,84.9075112 53.0892863,84.7407178 C52.349963,84.5919078 51.63823,84.3291548 50.9795317,83.9618523 C49.6990879,83.2738296 48.6509106,82.3646567 47.7114221,81.3877241 C47.2760502,80.9354668 46.8628934,80.4623283 46.4734116,79.9699803 C46.1384117,80.4562128 45.7982008,80.9379776 45.443101,81.4100625 C44.6369437,82.4915026 43.7492064,83.5096329 42.7876689,84.4555309 C41.8109582,85.4078913 40.7717143,86.3356795 39.5567815,87.0989082 C38.3470598,87.8561799 37.0025938,88.5173965 35.4965834,88.8636417 C34.1372285,89.1912716 32.6662069,89.2165884 31.2554854,88.9589522 C30.8028634,89.9455648 30.3398191,90.9247314 29.8782638,91.9076209 C35.5300776,94.1807957 41.5661946,95.3456723 47.6578221,95.3388293 C53.8649354,95.3457988 60.0132628,94.1360915 65.7552581,91.7780582 C65.6748582,91.5911603 65.5914804,91.4057515 65.5125694,91.2188536" id="Path" fill="#FA4F0D" fill-rule="nonzero" mask="url(#mask-6)"></path>
                </g>
                <g id="Clipped" transform="translate(94.000000, 0.000000)">
                    <mask id="mask-8" fill="white">
                        <use xlink:href="#path-7"></use>
                    </mask>
                    <g id="g"></g>
                    <path d="M74.7228317,41.1324393 C74.971476,38.7146799 75.0578316,36.2879851 74.9312761,33.8873518 C74.8747954,32.6991827 74.7595135,31.5145409 74.585854,30.3377801 C74.4101652,29.2253278 74.1295098,28.2156322 73.68731,27.4434682 C73.2331991,26.650455 72.6897549,26.1828378 72.0249663,25.9601985 C71.3720888,25.7442606 70.670078,25.8373373 70.0626117,26.2334715 C69.9055693,26.3399587 69.7572088,26.4587238 69.618923,26.5886521 C69.4417453,26.7688485 69.265312,26.9535126 69.1000455,27.1523244 C68.7606394,27.5607092 68.4527918,27.994333 68.1791681,28.4494408 C67.6215795,29.3854197 67.1630019,30.4301122 66.7915243,31.5373522 C66.043358,33.7518321 65.6004138,36.1584224 65.2430806,38.6111786 L64.2380811,46.0937978 C63.6104952,51.048598 63.26625,56.0351971 63.207026,61.0292515 C63.1710462,64.972245 63.3586993,68.9141056 63.7690813,72.8358402 C64.5125983,71.5926623 65.2299046,70.3339877 65.9205247,69.0606507 C70.4728004,60.3553765 73.6746544,50.8072 74.7228317,41.1324393" id="Path" fill="#FA4F0D" fill-rule="nonzero" mask="url(#mask-8)"></path>
                </g>
                <g id="Clipped" transform="translate(94.000000, 0.000000)">
                    <mask id="mask-10" fill="white">
                        <use xlink:href="#path-9"></use>
                    </mask>
                    <g id="i"></g>
                    <path d="M47.6578221,-0.00074461331 C21.3365122,-0.00074461331 -0.000744444096,21.3421067 -0.000744444096,47.6693995 C-0.000744444096,66.9414812 11.4346613,83.5411458 27.8876203,91.0542941 C28.3052534,90.1637365 28.7251199,89.269456 29.1367975,88.3729415 C28.9605958,88.3035402 28.7856245,88.2310534 28.6119644,88.1555144 C27.8661241,87.8266048 27.1639617,87.4064122 26.5215654,86.9045641 C25.2373993,85.9082715 24.2569664,84.6781703 23.4745557,83.4197738 C22.6951227,82.1598881 22.112223,80.8240518 21.639501,79.5343815 C21.1526345,78.2335421 20.7953014,76.8999396 20.5027349,75.5700603 C19.9094129,72.9080677 19.6503464,70.2430967 19.5334686,67.642907 C19.4375675,65.0672295 19.4112542,62.4894306 19.4545576,59.9123316 C19.5446353,57.3166096 19.6898019,54.6739769 20.1416795,52.0343228 C20.3577208,50.7061291 20.6397176,49.3895133 20.9866235,48.0893614 C21.3611749,46.6964801 21.8889849,45.3494347 22.5603783,44.0729172 C23.2676002,42.7884593 24.1058443,41.4652814 25.5954769,40.3826137 C26.3324766,39.8539382 27.3009983,39.4205733 28.3357756,39.3341981 C29.3839529,39.2299523 30.3383303,39.4682285 31.1840187,39.8502152 C32.8887957,40.6499298 33.9459063,42.1086273 34.5764505,43.3923407 C35.1930165,44.6321858 35.6804622,45.9321702 36.0310943,47.271776 C36.7010939,49.8883472 37.0837382,52.4006725 37.3442936,55.0142652 C37.8415823,60.2153892 37.4202269,65.4157686 36.5849607,70.4538222 C36.1784942,72.9795506 35.6893944,75.4747498 35.1705169,77.9595244 C34.6657838,80.3936653 33.8655064,82.7570679 32.9565401,85.0259047 C34.4789283,85.2507779 36.1301053,84.8844282 37.6822713,83.9938707 C39.6133592,82.928329 41.3270696,81.2373122 42.7899022,79.369822 C43.4049259,78.570964 43.9745793,77.7381661 44.4961681,76.8753674 C42.2367802,72.61469 41.0553475,67.9846845 40.1910479,63.4001003 C39.2418816,58.3210929 38.8458374,53.2361286 38.3463154,48.2152011 C37.8646601,43.1213014 37.6673824,37.9991065 37.6837601,32.8761669 C37.698649,30.3146971 37.7708601,27.7532273 37.9026267,25.1932467 L38.1222377,21.3957189 C38.1966821,20.1276424 38.2748488,18.8372275 38.4051265,17.5222404 C38.5294085,16.1818402 38.7224741,14.8487137 38.9835595,13.5281346 C39.2537927,12.1982553 39.6401592,10.7805115 40.1821145,9.46775824 C40.7218365,8.14383578 41.3791806,6.85044246 42.2829358,5.60247055 C43.2000909,4.38130472 44.3554681,3.09759137 46.2366784,2.30830126 C47.2232162,1.9118968 48.292687,1.76657331 49.3491991,1.8853609 C50.4107764,2.00449903 51.3591982,2.38574105 52.1430978,2.84144439 C52.9381641,3.29863697 53.5835972,3.83624778 54.1478858,4.38800624 C54.7211077,4.92934012 55.2556186,5.56672911 55.7000517,6.19741658 C56.6038069,7.47591764 57.2321177,8.80952008 57.7547174,10.0947227 C58.2460505,11.3754575 58.6942059,12.6554478 59.0574946,13.964478 C60.5463828,19.1946419 60.8612826,24.59011 60.6684716,29.8210185 C60.4600273,35.0660746 59.7624832,40.1986942 58.8892502,45.2263233 C57.1770288,55.3232797 53.9089192,65.2489752 49.5472213,74.582703 C49.0550528,75.651004 48.5084085,76.6933436 47.9094443,77.7056112 C49.0305771,79.3757789 50.5001097,80.9022362 52.1363978,81.8039629 C53.1041752,82.3378507 54.0198414,82.5299609 54.9742187,82.3177461 C55.9434849,82.0988298 56.9023289,81.509096 57.780773,80.7935226 C59.152039,79.6386274 60.3118829,78.1620592 61.3794157,76.6087958 C61.3667602,76.5224207 61.349638,76.4360456 61.336238,76.3481812 C60.5374495,71.2751307 60.1920274,66.1484681 60.137683,61.0299962 C60.0960241,55.9130654 60.3465652,50.7979308 60.8880826,45.7095773 L61.7531267,38.1443061 C62.0695154,35.5947501 62.4640708,32.9930712 63.2717926,30.3921369 C63.6737924,29.0942759 64.1949033,27.7949257 64.9006363,26.5409968 C65.2579695,25.9155217 65.6636915,25.3034495 66.1289691,24.7204173 C66.3597467,24.4285289 66.6128577,24.147065 66.8719243,23.8715581 C67.1824911,23.5570458 67.5205766,23.2709659 67.8821349,23.016742 C69.3531564,21.9690711 71.389211,21.6079337 73.1580102,22.1470337 C74.9387205,22.6384785 76.3918754,23.9936747 77.1928972,25.3831231 C78.0289079,26.8001223 78.4115522,28.2766905 78.6601965,29.6475236 C78.8879964,31.0146336 79.0324186,32.2998362 79.1217519,33.632694 C79.306374,36.2760713 79.2572407,38.9187039 79.0353964,41.531552 C78.6051077,46.7646944 77.4527082,51.8757201 75.8826756,56.8184633 C74.3060105,61.7610613 72.3057078,66.5582948 69.9040451,71.1567372 C68.670091,73.4995045 67.1727469,75.6936934 65.4411027,77.6966759 C65.1597028,78.0205827 64.8641585,78.3340649 64.571592,78.6497809 L64.7368586,79.6103321 C64.9644888,80.817497 65.2394003,82.0152607 65.5609582,83.2008575 C66.1952246,85.5806416 67.0148575,87.9217059 67.9312682,90.2329856 C67.9967793,90.3968005 68.0675015,90.5606154 68.1352459,90.7244304 C84.2085384,83.0623594 95.3171332,66.6644851 95.3171332,47.6693995 C95.3171332,21.3421067 73.9798765,-0.00074461331 47.6585666,-0.00074461331" id="Path" fill="#FA4F0D" fill-rule="nonzero" mask="url(#mask-10)"></path>
                </g>
            </g>
        </g>
    </g>
</svg>